<?xml version="1.0" encoding="UTF-8"?>
<svg xmlns="http://www.w3.org/2000/svg" xmlns:xlink="http://www.w3.org/1999/xlink" width="30px" height="30px" viewBox="0 0 30 34" version="1.1">
<g id="surface1">
<path style=" stroke:none;fill-rule:nonzero;fill:rgb(10.588235%,45.098039%,72.941176%);fill-opacity:1;" d="M 2.511719 30.4375 L 0 0.0585938 L 30 0.117188 L 27.34375 30.4375 L 15.113281 33.941406 Z M 2.511719 30.4375 "/>
<path style=" stroke:none;fill-rule:nonzero;fill:rgb(10.980392%,53.333333%,78.039216%);fill-opacity:1;" d="M 15.113281 31.007812 L 15.113281 2.949219 L 27.46875 2.992188 L 25.265625 28.09375 Z M 15.113281 31.007812 "/>
<path style=" stroke:none;fill-rule:nonzero;fill:rgb(100%,100%,100%);fill-opacity:1;" d="M 24.398438 6.535156 L 5.394531 6.535156 L 5.910156 10.203125 L 14.929688 10.203125 L 6.054688 13.972656 L 6.566406 17.519531 L 19.644531 17.519531 L 19.167969 22.472656 L 14.742188 23.328125 L 10.726562 22.308594 L 10.417969 19.496094 L 6.734375 19.496094 L 7.226562 25.34375 L 15.132812 27.523438 L 22.710938 25.140625 L 23.679688 13.710938 L 15.667969 13.710938 L 24.398438 10.121094 Z M 24.398438 6.535156 "/>
</g>
</svg>
