<?xml version="1.0" encoding="UTF-8"?>
<svg xmlns="http://www.w3.org/2000/svg" xmlns:xlink="http://www.w3.org/1999/xlink" width="26px" height="30px" viewBox="0 0 26 29" version="1.1">
<g id="surface1">
<path style=" stroke:none;fill-rule:nonzero;fill:rgb(44.705882%,53.72549%,85.490196%);fill-opacity:1;" d="M 22.953125 0.00390625 L 3.046875 0.00390625 C 1.367188 0.00390625 0 1.332031 0 2.984375 L 0 22.558594 C 0 24.207031 1.367188 25.539062 3.046875 25.539062 L 19.894531 25.539062 L 19.105469 22.859375 L 21.007812 24.582031 L 22.804688 26.203125 L 26 28.957031 L 26 2.984375 C 26 1.332031 24.632812 0.00390625 22.953125 0.00390625 Z M 17.21875 18.910156 C 17.21875 18.910156 16.683594 18.285156 16.238281 17.734375 C 18.183594 17.199219 18.929688 16.011719 18.929688 16.011719 C 18.320312 16.402344 17.738281 16.679688 17.21875 16.867188 C 16.476562 17.171875 15.761719 17.375 15.066406 17.488281 C 13.640625 17.75 12.332031 17.679688 11.21875 17.476562 C 10.371094 17.316406 9.640625 17.085938 9.03125 16.851562 C 8.691406 16.722656 8.320312 16.5625 7.949219 16.359375 C 7.902344 16.332031 7.859375 16.316406 7.816406 16.289062 C 7.785156 16.273438 7.769531 16.257812 7.753906 16.246094 C 7.488281 16.101562 7.339844 16 7.339844 16 C 7.339844 16 8.050781 17.15625 9.9375 17.707031 C 9.492188 18.257812 8.945312 18.910156 8.945312 18.910156 C 5.660156 18.808594 4.414062 16.707031 4.414062 16.707031 C 4.414062 12.046875 6.550781 8.269531 6.550781 8.269531 C 8.691406 6.703125 10.726562 6.75 10.726562 6.75 L 10.875 6.921875 C 8.203125 7.675781 6.96875 8.820312 6.96875 8.820312 C 6.96875 8.820312 7.292969 8.644531 7.84375 8.398438 C 9.433594 7.71875 10.695312 7.53125 11.21875 7.488281 C 11.304688 7.472656 11.378906 7.457031 11.46875 7.457031 C 12.464844 7.332031 13.472656 7.320312 14.472656 7.429688 C 15.882812 7.585938 17.398438 7.992188 18.941406 8.820312 C 18.941406 8.820312 17.769531 7.734375 15.242188 6.980469 L 15.453125 6.75 C 15.453125 6.75 17.488281 6.703125 19.625 8.269531 C 19.625 8.269531 21.765625 12.046875 21.765625 16.707031 C 21.765625 16.707031 20.503906 18.808594 17.21875 18.910156 Z M 10.3125 12.148438 C 9.464844 12.148438 8.796875 12.871094 8.796875 13.753906 C 8.796875 14.636719 9.480469 15.363281 10.3125 15.363281 C 11.15625 15.363281 11.828125 14.636719 11.828125 13.753906 C 11.839844 12.871094 11.15625 12.148438 10.3125 12.148438 M 15.734375 12.148438 C 14.886719 12.148438 14.21875 12.871094 14.21875 13.753906 C 14.21875 14.636719 14.902344 15.363281 15.734375 15.363281 C 16.582031 15.363281 17.25 14.636719 17.25 13.753906 C 17.25 12.871094 16.582031 12.148438 15.734375 12.148438 "/>
</g>
</svg>
