<?xml version="1.0" encoding="UTF-8"?>
<svg xmlns="http://www.w3.org/2000/svg" xmlns:xlink="http://www.w3.org/1999/xlink" width="20px" height="30px" viewBox="0 0 20 29" version="1.1">
<g id="surface1">
<path style=" stroke:none;fill-rule:nonzero;fill:rgb(3.921569%,81.176471%,51.372549%);fill-opacity:1;" d="M 5 29 C 7.761719 29 10 26.835938 10 24.167969 L 10 19.332031 L 5 19.332031 C 2.242188 19.332031 0.00390625 21.5 0.00390625 24.167969 C 0.00390625 26.835938 2.242188 29 5 29 Z M 5 29 "/>
<path style=" stroke:none;fill-rule:nonzero;fill:rgb(63.529412%,34.901961%,100%);fill-opacity:1;" d="M 0.00390625 14.5 C 0.00390625 11.832031 2.242188 9.667969 5 9.667969 L 10 9.667969 L 10 19.332031 L 5 19.332031 C 2.242188 19.332031 0.00390625 17.167969 0.00390625 14.5 Z M 0.00390625 14.5 "/>
<path style=" stroke:none;fill-rule:nonzero;fill:rgb(94.901961%,30.588235%,11.764706%);fill-opacity:1;" d="M 0.00390625 4.832031 C 0.00390625 2.164062 2.242188 0 5 0 L 10 0 L 10 9.667969 L 5 9.667969 C 2.242188 9.667969 0.00390625 7.5 0.00390625 4.832031 Z M 0.00390625 4.832031 "/>
<path style=" stroke:none;fill-rule:nonzero;fill:rgb(100%,44.705882%,38.431373%);fill-opacity:1;" d="M 10 0 L 15 0 C 17.757812 0 19.996094 2.164062 19.996094 4.832031 C 19.996094 7.5 17.757812 9.667969 15 9.667969 L 10 9.667969 Z M 10 0 "/>
<path style=" stroke:none;fill-rule:nonzero;fill:rgb(10.196078%,73.72549%,99.607843%);fill-opacity:1;" d="M 19.996094 14.5 C 19.996094 17.167969 17.757812 19.332031 15 19.332031 C 12.238281 19.332031 10 17.167969 10 14.5 C 10 11.832031 12.238281 9.667969 15 9.667969 C 17.757812 9.667969 19.996094 11.832031 19.996094 14.5 Z M 19.996094 14.5 "/>
</g>
</svg>
