<?xml version="1.0" encoding="UTF-8"?>
<svg xmlns="http://www.w3.org/2000/svg" xmlns:xlink="http://www.w3.org/1999/xlink" width="30px" height="30px" viewBox="0 0 30 30" version="1.1">
<g id="surface1">
<path style=" stroke:none;fill-rule:nonzero;fill:rgb(87.058824%,29.803922%,21.176471%);fill-opacity:1;" d="M 29.433594 13.664062 L 16.335938 0.566406 C 15.582031 -0.1875 14.359375 -0.1875 13.605469 0.566406 L 10.882812 3.285156 L 14.335938 6.734375 C 15.136719 6.464844 16.054688 6.648438 16.695312 7.285156 C 17.335938 7.929688 17.515625 8.855469 17.238281 9.660156 L 20.566406 12.984375 C 21.371094 12.710938 22.296875 12.886719 22.941406 13.53125 C 23.839844 14.429688 23.839844 15.882812 22.941406 16.78125 C 22.042969 17.679688 20.585938 17.679688 19.6875 16.78125 C 19.011719 16.105469 18.847656 15.113281 19.1875 14.28125 L 16.085938 11.179688 L 16.085938 19.34375 C 16.3125 19.453125 16.515625 19.601562 16.695312 19.777344 C 17.59375 20.675781 17.59375 22.128906 16.695312 23.027344 C 15.796875 23.925781 14.339844 23.925781 13.445312 23.027344 C 12.546875 22.128906 12.546875 20.675781 13.445312 19.777344 C 13.660156 19.5625 13.914062 19.390625 14.195312 19.273438 L 14.195312 11.039062 C 13.914062 10.921875 13.660156 10.753906 13.445312 10.535156 C 12.761719 9.859375 12.601562 8.859375 12.949219 8.023438 L 9.546875 4.621094 L 0.566406 13.601562 C -0.1875 14.359375 -0.1875 15.582031 0.566406 16.335938 L 13.664062 29.433594 C 14.417969 30.1875 15.640625 30.1875 16.398438 29.433594 L 29.433594 16.398438 C 30.1875 15.640625 30.1875 14.417969 29.433594 13.664062 "/>
</g>
</svg>
