<?xml version="1.0" encoding="UTF-8"?>
<svg xmlns="http://www.w3.org/2000/svg" xmlns:xlink="http://www.w3.org/1999/xlink" width="31px" height="30px" viewBox="0 0 30 30" version="1.1">
<g id="surface1">
<path style=" stroke:none;fill-rule:nonzero;fill:rgb(8.627451%,8.627451%,7.843137%);fill-opacity:1;" d="M 14.941406 0 C 6.691406 0 0 6.875 0 15.359375 C 0 22.144531 4.28125 27.902344 10.21875 29.933594 C 10.964844 30.078125 11.238281 29.601562 11.238281 29.195312 C 11.238281 28.828125 11.226562 27.621094 11.21875 26.335938 C 7.0625 27.265625 6.183594 24.523438 6.183594 24.523438 C 5.503906 22.75 4.527344 22.277344 4.527344 22.277344 C 3.171875 21.324219 4.628906 21.34375 4.628906 21.34375 C 6.128906 21.449219 6.917969 22.925781 6.917969 22.925781 C 8.25 25.273438 10.414062 24.59375 11.265625 24.203125 C 11.402344 23.210938 11.789062 22.53125 12.214844 22.148438 C 8.898438 21.761719 5.40625 20.441406 5.40625 14.558594 C 5.40625 12.878906 5.992188 11.511719 6.945312 10.433594 C 6.792969 10.046875 6.28125 8.484375 7.09375 6.371094 C 7.09375 6.371094 8.347656 5.957031 11.203125 7.945312 C 12.394531 7.605469 13.671875 7.433594 14.941406 7.425781 C 16.210938 7.433594 17.492188 7.605469 18.683594 7.945312 C 21.539062 5.957031 22.789062 6.371094 22.789062 6.371094 C 23.601562 8.484375 23.089844 10.046875 22.9375 10.433594 C 23.894531 11.511719 24.472656 12.878906 24.472656 14.558594 C 24.472656 20.457031 20.980469 21.757812 17.652344 22.136719 C 18.1875 22.613281 18.664062 23.546875 18.664062 24.980469 C 18.664062 27.035156 18.648438 28.691406 18.648438 29.195312 C 18.648438 29.605469 18.917969 30.082031 19.675781 29.933594 C 25.609375 27.898438 29.882812 22.144531 29.882812 15.359375 C 29.882812 6.875 23.195312 0 14.941406 0 "/>
<path style=" stroke:none;fill-rule:nonzero;fill:rgb(8.627451%,8.627451%,7.843137%);fill-opacity:1;" d="M 5.597656 21.878906 C 5.5625 21.957031 5.445312 21.980469 5.339844 21.925781 C 5.230469 21.878906 5.171875 21.773438 5.207031 21.695312 C 5.238281 21.617188 5.355469 21.597656 5.464844 21.648438 C 5.570312 21.699219 5.632812 21.804688 5.597656 21.878906 M 6.332031 22.554688 C 6.261719 22.621094 6.121094 22.589844 6.027344 22.484375 C 5.929688 22.375 5.910156 22.234375 5.984375 22.164062 C 6.054688 22.097656 6.191406 22.128906 6.289062 22.234375 C 6.386719 22.34375 6.40625 22.484375 6.332031 22.554688 M 6.835938 23.417969 C 6.742188 23.484375 6.59375 23.421875 6.5 23.285156 C 6.410156 23.148438 6.410156 22.984375 6.503906 22.917969 C 6.597656 22.851562 6.742188 22.910156 6.835938 23.046875 C 6.929688 23.1875 6.929688 23.351562 6.835938 23.417969 M 7.6875 24.417969 C 7.605469 24.507812 7.433594 24.484375 7.304688 24.355469 C 7.171875 24.234375 7.136719 24.058594 7.21875 23.964844 C 7.300781 23.871094 7.476562 23.898438 7.605469 24.023438 C 7.734375 24.148438 7.777344 24.324219 7.6875 24.417969 M 8.789062 24.753906 C 8.753906 24.875 8.585938 24.929688 8.417969 24.878906 C 8.246094 24.824219 8.136719 24.683594 8.171875 24.5625 C 8.207031 24.441406 8.375 24.382812 8.546875 24.4375 C 8.714844 24.492188 8.824219 24.632812 8.789062 24.753906 M 10.042969 24.894531 C 10.050781 25.023438 9.90625 25.128906 9.726562 25.128906 C 9.550781 25.132812 9.40625 25.03125 9.402344 24.90625 C 9.402344 24.78125 9.542969 24.675781 9.722656 24.671875 C 9.898438 24.667969 10.042969 24.769531 10.042969 24.894531 M 11.277344 24.847656 C 11.296875 24.972656 11.175781 25.097656 11 25.132812 C 10.824219 25.164062 10.664062 25.089844 10.640625 24.964844 C 10.621094 24.839844 10.746094 24.710938 10.917969 24.679688 C 11.097656 24.648438 11.253906 24.722656 11.277344 24.847656 "/>
</g>
</svg>
