<?xml version="1.0" encoding="UTF-8"?>
<svg xmlns="http://www.w3.org/2000/svg" xmlns:xlink="http://www.w3.org/1999/xlink" width="36px" height="20px" viewBox="0 0 36 20" version="1.1">
<defs>
<linearGradient id="linear0" gradientUnits="userSpaceOnUse" x1="14.001" y1="30.744" x2="32" y2="30.744" gradientTransform="matrix(0.540969,0,0,0.549155,0.763755,-7.457781)">
<stop offset="0" style="stop-color:rgb(78.431373%,78.431373%,78.431373%);stop-opacity:1;"/>
<stop offset="1" style="stop-color:rgb(80.392157%,80.392157%,80.392157%);stop-opacity:1;"/>
</linearGradient>
<linearGradient id="linear1" gradientUnits="userSpaceOnUse" x1="28.665" y1="36.447" x2="50" y2="36.447" gradientTransform="matrix(0.540969,0,0,0.549155,0.763755,-7.457781)">
<stop offset="0" style="stop-color:rgb(85.098039%,85.098039%,85.098039%);stop-opacity:1;"/>
<stop offset="1" style="stop-color:rgb(88.627451%,88.627451%,88.627451%);stop-opacity:1;"/>
</linearGradient>
</defs>
<g id="surface1">
<path style=" stroke:none;fill-rule:nonzero;fill:rgb(91.764706%,91.764706%,91.764706%);fill-opacity:1;" d="M 29.433594 20 L 6.714844 20 C 5.816406 20 5.089844 19.261719 5.089844 18.351562 L 5.089844 1.878906 C 5.089844 0.96875 5.816406 0.230469 6.714844 0.230469 L 29.433594 0.230469 C 30.332031 0.230469 31.058594 0.96875 31.058594 1.878906 L 31.058594 18.351562 C 31.058594 19.261719 30.332031 20 29.433594 20 Z M 29.433594 20 "/>
<path style=" stroke:none;fill-rule:nonzero;fill:rgb(83.529412%,29.803922%,24.705882%);fill-opacity:1;" d="M 8.339844 20 L 6.714844 20 C 5.816406 20 5.089844 19.261719 5.089844 18.351562 L 5.089844 1.878906 C 5.089844 0.96875 5.816406 0.230469 6.714844 0.230469 C 7.613281 0.230469 8.339844 0.96875 8.339844 1.878906 Z M 8.339844 20 "/>
<path style=" stroke:none;fill-rule:nonzero;fill:rgb(71.372549%,20.784314%,14.117647%);fill-opacity:1;" d="M 27.8125 20 L 29.433594 20 C 30.332031 20 31.058594 19.261719 31.058594 18.351562 L 31.058594 1.878906 C 31.058594 0.96875 30.332031 0.230469 29.433594 0.230469 C 28.539062 0.230469 27.8125 0.96875 27.8125 1.878906 Z M 27.8125 20 "/>
<path style=" stroke:none;fill-rule:nonzero;fill:rgb(87.058824%,31.764706%,27.058824%);fill-opacity:1;" d="M 30.363281 3.230469 C 31.097656 2.707031 31.277344 1.679688 30.765625 0.933594 C 30.253906 0.1875 29.238281 0.00390625 28.503906 0.527344 L 18.074219 8.234375 L 18.074219 8.238281 L 18.074219 8.234375 L 7.644531 0.527344 C 6.910156 0.00390625 5.894531 0.1875 5.382812 0.933594 C 4.871094 1.679688 5.050781 2.707031 5.785156 3.230469 L 5.742188 3.195312 L 18.074219 12.3125 M 30.410156 3.195312 L 18.074219 12.3125 "/>
<path style=" stroke:none;fill-rule:nonzero;fill:rgb(93.72549%,93.72549%,93.72549%);fill-opacity:1;" d="M 29.433594 0.230469 C 29.089844 0.230469 28.769531 0.339844 28.503906 0.527344 L 18.074219 8.234375 L 18.074219 8.238281 L 18.074219 8.234375 L 7.644531 0.527344 C 7.371094 0.332031 7.046875 0.230469 6.714844 0.230469 Z M 29.433594 0.230469 "/>
<path style=" stroke:none;fill-rule:nonzero;fill:rgb(77.647059%,25.490196%,19.607843%);fill-opacity:1;" d="M 8.339844 5.824219 L 5.601562 3.074219 L 5.601562 3.078125 C 5.660156 3.132812 5.722656 3.183594 5.785156 3.230469 L 5.742188 3.195312 L 8.339844 5.113281 L 8.339844 5.84375 "/>
<path style=" stroke:none;fill-rule:nonzero;fill:rgb(89.019608%,89.019608%,89.019608%);fill-opacity:1;" d="M 16.273438 13.734375 L 8.339844 20 L 8.339844 5.757812 L 16.269531 13.730469 "/>
<path style=" stroke:none;fill-rule:nonzero;fill:url(#linear0);" d="M 16.273438 13.734375 L 18.074219 12.3125 L 8.339844 5.113281 L 8.339844 5.757812 L 16.269531 13.730469 Z M 16.273438 13.734375 "/>
<path style=" stroke:none;fill-rule:nonzero;fill:url(#linear1);" d="M 22.433594 20 L 27.8125 20 L 27.8125 5.113281 L 18.074219 12.3125 L 16.269531 13.730469 Z M 22.433594 20 "/>
</g>
</svg>
