<?xml version="1.0" encoding="UTF-8"?>
<svg xmlns="http://www.w3.org/2000/svg" xmlns:xlink="http://www.w3.org/1999/xlink" width="30px" height="34px" viewBox="0 0 30 34" version="1.1">
<g id="surface1">
<path style=" stroke:none;fill-rule:nonzero;fill:rgb(91.372549%,79.215686%,19.607843%);fill-opacity:1;" d="M 2.511719 30.4375 L 0 0.0585938 L 30 0.117188 L 27.34375 30.4375 L 15.113281 33.941406 Z M 2.511719 30.4375 "/>
<path style=" stroke:none;fill-rule:nonzero;fill:rgb(100%,87.058824%,14.509804%);fill-opacity:1;" d="M 15.113281 31.007812 L 15.113281 2.949219 L 27.46875 2.992188 L 25.265625 28.09375 Z M 15.113281 31.007812 "/>
<path style=" stroke:none;fill-rule:nonzero;fill:rgb(100%,100%,100%);fill-opacity:1;" d="M 13.789062 6.28125 L 10.523438 6.28125 L 10.523438 24.957031 L 7.984375 24.476562 L 7.984375 21.964844 L 4.960938 21.484375 L 4.960938 27.113281 L 13.789062 29.386719 Z M 16.242188 6.28125 L 25.28125 6.28125 L 24.675781 9.859375 L 19.691406 9.859375 L 19.691406 15.734375 L 24.675781 15.734375 L 24.074219 27.589844 L 16.242188 29.386719 L 16.242188 25.675781 L 21.53125 23.878906 L 21.835938 18.972656 L 16.242188 19.773438 Z M 16.242188 6.28125 "/>
</g>
</svg>
