<?xml version="1.0" encoding="UTF-8"?>
<svg xmlns="http://www.w3.org/2000/svg" xmlns:xlink="http://www.w3.org/1999/xlink" width="30px" height="30px" viewBox="0 0 30 30" version="1.1">
<g id="surface1">
<path style=" stroke:none;fill-rule:nonzero;fill:rgb(40%,40.392157%,41.960784%);fill-opacity:1;" d="M 15 29.769531 C 14.816406 29.769531 14.667969 29.621094 14.667969 29.4375 L 14.667969 13.707031 C 14.667969 13.523438 14.816406 13.375 15 13.375 C 15.183594 13.375 15.332031 13.523438 15.332031 13.707031 L 15.332031 29.4375 C 15.332031 29.621094 15.183594 29.769531 15 29.769531 Z M 15 29.769531 "/>
<path style=" stroke:none;fill-rule:nonzero;fill:rgb(94.901961%,24.705882%,21.960784%);fill-opacity:1;" d="M 21.738281 6.96875 C 21.738281 10.691406 18.722656 13.707031 15 13.707031 C 11.277344 13.707031 8.261719 10.691406 8.261719 6.96875 C 8.261719 3.246094 11.277344 0.230469 15 0.230469 C 18.722656 0.230469 21.738281 3.246094 21.738281 6.96875 Z M 21.738281 6.96875 "/>
<path style=" stroke:none;fill-rule:nonzero;fill:rgb(100%,61.960784%,60.392157%);fill-opacity:1;" d="M 18.980469 4.648438 C 18.980469 5.5625 18.238281 6.304688 17.324219 6.304688 C 16.40625 6.304688 15.664062 5.5625 15.664062 4.648438 C 15.664062 3.730469 16.40625 2.988281 17.324219 2.988281 C 18.238281 2.988281 18.980469 3.730469 18.980469 4.648438 Z M 18.980469 4.648438 "/>
</g>
</svg>
