<?xml version="1.0" encoding="UTF-8"?>
<svg xmlns="http://www.w3.org/2000/svg" xmlns:xlink="http://www.w3.org/1999/xlink" width="30px" height="34px" viewBox="0 0 30 34" version="1.1">
<g id="surface1">
<path style=" stroke:none;fill-rule:nonzero;fill:rgb(38.039216%,85.490196%,98.431373%);fill-opacity:1;" d="M 30 17.003906 C 30 15.027344 27.511719 13.152344 23.695312 11.992188 C 24.574219 8.125 24.183594 5.046875 22.460938 4.058594 C 22.0625 3.828125 21.597656 3.71875 21.089844 3.71875 L 21.089844 5.078125 C 21.371094 5.078125 21.597656 5.132812 21.789062 5.234375 C 22.621094 5.707031 22.980469 7.515625 22.699219 9.839844 C 22.632812 10.410156 22.519531 11.011719 22.386719 11.625 C 21.1875 11.335938 19.878906 11.109375 18.503906 10.964844 C 17.679688 9.839844 16.820312 8.816406 15.960938 7.921875 C 17.953125 6.078125 19.824219 5.070312 21.097656 5.070312 L 21.097656 3.714844 C 19.414062 3.714844 17.214844 4.90625 14.988281 6.972656 C 12.761719 4.917969 10.558594 3.738281 8.878906 3.738281 L 8.878906 5.09375 C 10.144531 5.09375 12.023438 6.097656 14.015625 7.929688 C 13.160156 8.824219 12.304688 9.839844 11.488281 10.964844 C 10.109375 11.109375 8.800781 11.335938 7.601562 11.632812 C 7.460938 11.023438 7.355469 10.433594 7.28125 9.867188 C 6.996094 7.546875 7.351562 5.738281 8.175781 5.257812 C 8.359375 5.148438 8.597656 5.101562 8.878906 5.101562 L 8.878906 3.746094 C 8.367188 3.746094 7.902344 3.855469 7.496094 4.085938 C 5.777344 5.070312 5.394531 8.140625 6.28125 11.996094 C 2.476562 13.164062 0 15.03125 0 17.003906 C 0 18.980469 2.488281 20.851562 6.304688 22.015625 C 5.425781 25.882812 5.816406 28.960938 7.539062 29.945312 C 7.9375 30.175781 8.402344 30.285156 8.914062 30.285156 C 10.597656 30.285156 12.796875 29.09375 15.023438 27.027344 C 17.25 29.082031 19.453125 30.261719 21.132812 30.261719 C 21.648438 30.261719 22.113281 30.152344 22.515625 29.921875 C 24.234375 28.9375 24.617188 25.863281 23.730469 22.007812 C 27.523438 20.847656 30 18.972656 30 17.003906 Z M 22.039062 12.945312 C 21.8125 13.730469 21.53125 14.539062 21.210938 15.347656 C 20.960938 14.863281 20.699219 14.375 20.410156 13.890625 C 20.128906 13.402344 19.832031 12.929688 19.53125 12.464844 C 20.398438 12.59375 21.238281 12.75 22.039062 12.945312 Z M 19.238281 19.421875 C 18.761719 20.246094 18.273438 21.023438 17.765625 21.746094 C 16.851562 21.824219 15.929688 21.867188 15 21.867188 C 14.078125 21.867188 13.152344 21.824219 12.25 21.753906 C 11.742188 21.03125 11.246094 20.257812 10.769531 19.441406 C 10.304688 18.644531 9.882812 17.835938 9.496094 17.019531 C 9.875 16.207031 10.304688 15.390625 10.761719 14.59375 C 11.238281 13.773438 11.726562 12.996094 12.234375 12.269531 C 13.148438 12.191406 14.070312 12.148438 15 12.148438 C 15.921875 12.148438 16.847656 12.191406 17.75 12.265625 C 18.257812 12.988281 18.753906 13.761719 19.230469 14.578125 C 19.695312 15.375 20.117188 16.183594 20.503906 16.996094 C 20.117188 17.8125 19.695312 18.625 19.238281 19.421875 Z M 21.210938 18.632812 C 21.542969 19.449219 21.824219 20.261719 22.058594 21.054688 C 21.253906 21.25 20.410156 21.414062 19.539062 21.539062 C 19.835938 21.070312 20.136719 20.589844 20.417969 20.097656 C 20.699219 19.613281 20.960938 19.121094 21.210938 18.632812 Z M 15.011719 25.121094 C 14.445312 24.539062 13.875 23.886719 13.3125 23.175781 C 13.863281 23.199219 14.425781 23.21875 14.992188 23.21875 C 15.570312 23.21875 16.136719 23.207031 16.695312 23.175781 C 16.144531 23.886719 15.574219 24.539062 15.011719 25.121094 Z M 10.460938 21.539062 C 9.59375 21.414062 8.757812 21.253906 7.957031 21.058594 C 8.183594 20.273438 8.464844 19.464844 8.78125 18.65625 C 9.03125 19.144531 9.292969 19.628906 9.582031 20.117188 C 9.871094 20.605469 10.164062 21.078125 10.460938 21.539062 Z M 14.980469 8.882812 C 15.550781 9.46875 16.117188 10.117188 16.679688 10.828125 C 16.132812 10.804688 15.570312 10.789062 15 10.789062 C 14.425781 10.789062 13.855469 10.800781 13.300781 10.828125 C 13.851562 10.117188 14.417969 9.46875 14.980469 8.882812 Z M 10.457031 12.464844 C 10.15625 12.933594 9.855469 13.414062 9.574219 13.90625 C 9.292969 14.394531 9.03125 14.878906 8.78125 15.367188 C 8.449219 14.550781 8.167969 13.738281 7.9375 12.945312 C 8.738281 12.757812 9.582031 12.59375 10.457031 12.464844 Z M 4.921875 20.082031 C 2.757812 19.164062 1.359375 17.957031 1.359375 17.003906 C 1.359375 16.046875 2.757812 14.835938 4.921875 13.925781 C 5.449219 13.699219 6.023438 13.5 6.617188 13.3125 C 6.964844 14.503906 7.421875 15.742188 7.992188 17.015625 C 7.429688 18.28125 6.976562 19.515625 6.632812 20.699219 C 6.03125 20.511719 5.453125 20.304688 4.921875 20.082031 Z M 8.210938 28.773438 C 7.378906 28.296875 7.019531 26.492188 7.300781 24.167969 C 7.367188 23.597656 7.480469 22.992188 7.613281 22.378906 C 8.8125 22.671875 10.121094 22.898438 11.496094 23.042969 C 12.320312 24.167969 13.179688 25.1875 14.039062 26.082031 C 12.046875 27.925781 10.175781 28.9375 8.902344 28.9375 C 8.628906 28.929688 8.394531 28.875 8.210938 28.773438 Z M 22.71875 24.136719 C 23.003906 26.460938 22.648438 28.265625 21.824219 28.746094 C 21.640625 28.855469 21.402344 28.90625 21.121094 28.90625 C 19.855469 28.90625 17.976562 27.902344 15.984375 26.070312 C 16.839844 25.175781 17.695312 24.160156 18.511719 23.035156 C 19.890625 22.890625 21.199219 22.664062 22.398438 22.367188 C 22.539062 22.980469 22.648438 23.570312 22.71875 24.136719 Z M 25.070312 20.082031 C 24.546875 20.304688 23.96875 20.507812 23.378906 20.695312 C 23.027344 19.503906 22.570312 18.261719 22 16.992188 C 22.5625 15.726562 23.015625 14.492188 23.359375 13.304688 C 23.964844 13.492188 24.539062 13.699219 25.078125 13.925781 C 27.242188 14.84375 28.640625 16.046875 28.640625 17.003906 C 28.636719 17.957031 27.234375 19.167969 25.070312 20.082031 Z M 25.070312 20.082031 "/>
<path style=" stroke:none;fill-rule:nonzero;fill:rgb(38.039216%,85.490196%,98.431373%);fill-opacity:1;" d="M 17.789062 17.003906 C 17.789062 18.539062 16.539062 19.78125 14.992188 19.78125 C 13.449219 19.78125 12.199219 18.539062 12.199219 17.003906 C 12.199219 15.46875 13.449219 14.222656 14.992188 14.222656 C 16.539062 14.222656 17.789062 15.46875 17.789062 17.003906 Z M 17.789062 17.003906 "/>
</g>
</svg>
